<?xml version="1.0" standalone="no"?>
<!DOCTYPE svg PUBLIC "-//W3C//DTD SVG 20010904//EN"
 "http://www.w3.org/TR/2001/REC-SVG-20010904/DTD/svg10.dtd">
<svg version="1.0" xmlns="http://www.w3.org/2000/svg"
 width="182.000000pt" height="182.000000pt" viewBox="0 0 182.000000 182.000000"
 preserveAspectRatio="xMidYMid meet">
<metadata>
Created by potrace 1.16, written by Peter Selinger 2001-2019
</metadata>
<g transform="translate(0.000000,182.000000) scale(0.100000,-0.100000)"
fill="#000000" stroke="none">
<path d="M0 1235 c0 -475 2 -585 13 -585 7 0 22 -7 33 -16 18 -15 18 -15 -3
-5 -12 6 -26 11 -32 11 -6 0 -10 -113 -11 -320 l0 -320 909 0 910 0 1 910 0
910 -910 0 -910 0 0 -585z m934 544 c13 -13 38 -22 63 -24 70 -5 142 -52 157
-102 7 -20 9 -21 40 -8 37 16 75 9 146 -24 25 -11 52 -21 61 -21 25 0 40 -21
28 -37 -9 -10 -2 -23 29 -57 58 -63 78 -148 46 -194 -14 -20 -14 -22 5 -22 11
0 34 -12 53 -26 30 -25 30 -24 -5 10 -30 31 -36 42 -31 64 4 15 12 33 18 41 8
11 8 13 -1 7 -7 -4 -13 -2 -13 3 0 17 13 13 43 -15 28 -25 28 -44 1 -44 -16 0
-19 -16 -4 -25 6 -4 8 -10 5 -15 -3 -4 2 -13 11 -20 8 -7 13 -19 10 -26 -6
-16 25 -102 54 -149 l22 -35 -26 0 c-24 0 -26 -3 -26 -47 -1 -27 -7 -65 -15
-87 -7 -21 -12 -43 -10 -50 2 -6 6 -30 9 -54 5 -41 5 -43 -21 -40 -21 3 -28
-3 -39 -32 -10 -29 -12 -31 -12 -10 1 14 -2 37 -6 52 -7 22 -4 27 16 34 12 4
27 7 31 6 5 -1 6 2 2 8 -3 5 -1 10 4 10 6 0 11 7 11 16 0 12 -7 10 -31 -10
-17 -14 -37 -26 -46 -26 -11 0 -13 -6 -8 -22 16 -51 16 -75 0 -118 -10 -25
-25 -67 -35 -95 -10 -27 -20 -49 -22 -48 -28 16 -42 13 -67 -15 -53 -57 -140
-82 -208 -58 -18 7 -23 5 -23 -10 0 -10 -12 -31 -27 -48 -16 -17 -19 -24 -8
-16 18 14 19 14 7 -1 -7 -10 -20 -15 -30 -13 -9 3 -52 -13 -94 -34 l-78 -38 0
27 c0 26 -2 27 -39 22 -72 -10 -174 41 -187 93 -6 22 -10 24 -38 18 -45 -10
-92 -7 -123 9 -16 8 -52 22 -80 31 -56 18 -64 29 -36 44 15 9 13 13 -15 37
-18 15 -42 46 -54 69 -23 45 -28 120 -10 138 17 17 15 28 -4 28 -9 0 -29 9
-45 21 -16 11 -29 16 -29 11 0 -6 6 -12 13 -15 6 -2 8 -8 4 -13 -10 -11 -28
17 -22 34 2 7 -13 51 -35 99 -22 47 -40 87 -40 89 0 2 10 4 23 4 21 0 22 4 22
58 0 74 40 147 91 168 31 13 33 16 23 36 -18 33 -12 88 14 149 13 30 27 66 31
82 7 31 21 35 34 10 9 -15 13 -13 37 15 52 62 152 94 208 65 23 -12 27 -12 27
1 0 9 13 31 30 49 16 19 28 36 26 38 -3 2 7 5 20 5 14 1 51 15 82 31 31 17 59
31 61 32 2 0 13 -8 25 -20z m-612 -1386 c22 -20 24 -66 3 -83 -11 -9 -13 -16
-6 -23 19 -19 40 11 34 48 -4 28 -1 36 21 50 24 16 28 16 51 1 15 -10 25 -26
25 -40 0 -26 -68 -116 -88 -116 -16 0 -10 11 35 66 18 23 33 46 33 52 0 19
-35 33 -48 20 -17 -17 -15 -38 3 -38 22 0 19 -11 -13 -50 l-29 -34 -30 22
c-17 12 -32 19 -35 17 -3 -3 -5 2 -5 11 0 9 11 21 24 27 13 5 23 14 23 19 0
20 -22 48 -37 48 -13 0 -12 -5 8 -27 13 -14 19 -23 13 -20 -7 4 -14 0 -18 -8
-3 -8 -17 -15 -31 -15 -14 0 -25 -4 -25 -9 0 -11 74 -71 87 -71 5 0 16 -9 26
-20 9 -11 14 -20 11 -20 -11 0 -119 88 -149 121 -16 19 -21 26 -9 16 29 -24
37 -21 31 13 -5 23 -2 33 16 45 28 20 56 19 79 -2z m1148 -35 c0 -5 5 -6 12
-2 7 4 8 3 4 -4 -7 -11 19 -60 39 -74 6 -5 6 -11 -2 -19 -8 -8 -20 3 -47 46
-25 38 -42 55 -54 53 -21 -4 -23 -49 -3 -56 10 -3 12 0 8 11 -11 30 22 11 51
-29 l29 -39 -56 -34 c-62 -37 -74 -35 -104 18 -15 24 -16 31 -5 31 7 0 22 -15
33 -32 15 -25 20 -29 23 -16 2 9 -4 28 -13 41 -10 16 -12 28 -6 31 5 4 18 -7
27 -24 19 -32 33 -37 51 -19 18 18 4 39 -26 39 -34 0 -51 17 -51 51 0 38 34
61 66 47 13 -6 24 -15 24 -20z m-928 -55 c10 -9 18 -21 18 -26 0 -20 -34 -47
-59 -47 -14 0 -33 -5 -41 -10 -13 -9 -13 -11 0 -20 22 -14 34 -12 53 10 19 23
76 27 95 8 7 -7 32 -17 55 -23 39 -10 44 -9 69 17 27 29 56 35 89 18 23 -13
25 -58 3 -67 -24 -9 -49 11 -47 36 3 19 1 20 -18 9 -12 -8 -18 -20 -15 -31 2
-9 0 -15 -5 -11 -15 9 -10 -43 5 -55 11 -9 15 -7 19 10 7 26 60 24 65 -4 8
-41 -51 -63 -90 -33 -20 15 -41 64 -33 77 4 5 -1 6 -9 3 -15 -6 -20 -20 -19
-52 1 -7 -1 -11 -4 -8 -3 3 -14 -5 -24 -17 -13 -17 -20 -19 -29 -10 -9 8 -8
11 5 10 11 -1 19 6 20 18 1 11 6 32 10 48 5 17 3 27 -4 27 -6 0 -11 -11 -11
-25 0 -34 -36 -53 -59 -31 -15 15 -15 19 1 46 18 31 15 40 -14 40 -15 0 -16
-3 -6 -19 9 -15 9 -23 -1 -35 -17 -20 -47 -21 -58 -2 -4 8 -19 16 -32 18 -13
1 -29 11 -35 21 -18 28 4 52 52 55 27 2 42 9 47 20 5 14 4 15 -6 5 -22 -22
-49 -16 -49 11 0 36 32 46 62 19z"/>
<path d="M782 1578 c-7 -7 -12 -24 -12 -39 0 -21 -7 -29 -31 -38 -26 -9 -36
-8 -60 10 l-28 20 -31 -22 c-34 -26 -35 -28 -18 -64 10 -23 9 -29 -15 -52 -23
-24 -29 -25 -52 -15 -36 17 -38 16 -63 -18 l-23 -30 21 -28 c17 -23 19 -32 10
-59 -9 -25 -18 -32 -51 -37 -38 -6 -39 -7 -39 -47 0 -36 3 -41 30 -50 26 -10
30 -16 30 -49 0 -32 -4 -39 -31 -50 -27 -12 -30 -16 -27 -54 3 -39 4 -41 40
-44 32 -3 38 -8 48 -38 11 -32 10 -38 -10 -59 l-22 -23 23 -32 c23 -31 34 -33
81 -15 8 3 24 -6 37 -19 22 -23 23 -28 11 -57 -13 -30 -12 -33 16 -55 35 -29
42 -29 69 -4 18 17 25 18 53 8 27 -10 32 -18 32 -45 0 -38 3 -40 55 -44 37 -4
40 -2 49 29 8 29 13 32 47 32 34 0 39 -3 49 -35 10 -31 14 -34 43 -29 53 9 57
12 57 43 0 24 7 34 31 47 30 15 33 15 60 -5 30 -22 39 -21 82 13 17 13 17 16
2 45 -17 33 -16 36 26 69 13 10 22 10 43 1 23 -11 29 -9 51 11 30 28 31 47 6
74 -18 19 -18 24 -6 54 12 27 19 32 50 32 23 0 35 5 35 14 0 7 3 27 6 44 6 27
3 31 -30 42 -32 10 -36 15 -36 46 0 31 4 37 36 50 34 14 36 17 29 52 -8 42
-19 52 -56 52 -20 0 -28 7 -36 34 -9 30 -8 37 8 52 25 22 24 37 -3 69 -21 24
-26 25 -56 14 -31 -11 -36 -9 -59 13 -24 24 -24 26 -9 56 16 31 16 31 -19 58
l-36 27 -24 -23 c-21 -20 -27 -21 -59 -10 -30 10 -35 16 -38 48 -3 35 -5 37
-43 40 -39 3 -41 1 -59 -38 -10 -22 -16 -47 -13 -54 3 -7 27 -16 54 -20 119
-16 239 -109 300 -234 36 -73 38 -80 38 -176 0 -111 -16 -168 -66 -241 -143
-210 -430 -257 -622 -101 -200 162 -219 449 -42 632 59 60 155 111 232 123 53
7 55 13 28 79 -12 27 -19 32 -47 32 -19 0 -39 -5 -46 -12z"/>
</g>
</svg>
